<svg xmlns="http://www.w3.org/2000/svg" xmlns:xlink="http://www.w3.org/1999/xlink" width="1080" zoomAndPan="magnify" viewBox="0 0 810 809.999993" height="1080" preserveAspectRatio="xMidYMid meet" version="1.0"><defs><filter x="0%" y="0%" width="100%" height="100%" id="e86c97a578"><feColorMatrix values="0 0 0 0 1 0 0 0 0 1 0 0 0 0 1 0 0 0 1 0" color-interpolation-filters="sRGB"/></filter><clipPath id="eb8d634086"><path d="M 26 8.414062 L 784 8.414062 L 784 800 L 26 800 Z M 26 8.414062 " clip-rule="nonzero"/></clipPath><mask id="cae418d8c8"><g filter="url(#e86c97a578)"><rect x="-81" width="972" fill="#000000" y="-80.999999" height="971.999992" fill-opacity="0.64"/></g></mask><clipPath id="fc3a0e0325"><path d="M 0.640625 1 L 757.601562 1 L 757.601562 791.921875 L 0.640625 791.921875 Z M 0.640625 1 " clip-rule="nonzero"/></clipPath><clipPath id="5e3c198659"><rect x="0" width="758" y="0" height="792"/></clipPath></defs><g clip-path="url(#eb8d634086)"><g mask="url(#cae418d8c8)"><g transform="matrix(1, 0, 0, 1, 26, 8)"><g clip-path="url(#5e3c198659)"><g clip-path="url(#fc3a0e0325)"><path fill="#ff0000" d="M 753.023438 254.660156 C 761.914062 230.855469 754.574219 216.261719 753.023438 213.71875 C 761.792969 186.367188 753.414062 175.332031 751.480469 173.246094 C 753.929688 146.875 747.101562 139.515625 744.816406 137.925781 C 748.042969 113.761719 738.371094 101.984375 736.4375 99.898438 C 737.734375 59.425781 723.679688 53.539062 719.816406 52.675781 C 717.015625 19.933594 699.515625 1.261719 697.097656 1.5 C 695.195312 3.539062 702.257812 34.925781 694.242188 70.554688 C 684.804688 144.816406 599.757812 181.53125 535.460938 200.382812 C 512.753906 215.613281 500.769531 266.902344 464.761719 252.746094 C 464.40625 252.125 463.929688 251.613281 463.339844 251.210938 C 462.746094 250.808594 462.097656 250.554688 461.390625 250.449219 C 464.644531 247.832031 463.292969 242.253906 459.695312 240.796875 C 462.160156 238.015625 460.648438 232.226562 456.589844 231.457031 C 459.582031 229.210938 458.238281 226.164062 457.269531 223.496094 C 459.582031 222.230469 461.59375 220.589844 463.304688 218.574219 C 464.121094 219.261719 439.5 220.964844 439.957031 214.015625 C 448.84375 215.738281 455.953125 210.042969 455.953125 210.042969 C 455.363281 211.425781 435.371094 206.96875 436.386719 198.714844 C 437.878906 198.96875 439.378906 199.023438 440.886719 198.882812 C 442.390625 198.746094 443.855469 198.414062 445.273438 197.890625 C 446.695312 197.367188 448.023438 196.671875 449.261719 195.800781 C 450.496094 194.929688 451.601562 193.914062 452.574219 192.753906 C 447.566406 196.316406 429.125 186.746094 430.410156 181.101562 C 430.09375 181.0625 429.777344 181.046875 429.457031 181.042969 C 429.390625 180.847656 429.351562 180.644531 429.332031 180.433594 C 437.035156 184.777344 453.714844 180.855469 456.726562 174.503906 C 458.628906 173.761719 456.210938 171.464844 455.257812 173.160156 C 455.257812 173.160156 455.316406 173.007812 455.382812 172.933594 L 455.304688 173.019531 C 455.304688 172.953125 455.355469 172.875 455.382812 172.808594 C 418.632812 185.253906 435.132812 124.546875 417.488281 110.503906 C 417.070312 110.617188 416.699219 110.722656 416.355469 110.800781 L 416.109375 110.648438 C 416.441406 110.570312 416.8125 110.464844 417.234375 110.34375 C 417.324219 110.390625 417.410156 110.441406 417.488281 110.503906 C 423.382812 110.074219 428.773438 100.164062 430.535156 96.5 C 432.019531 95.480469 429.65625 93.558594 428.867188 95.175781 C 428.871094 95.042969 428.902344 94.921875 428.960938 94.804688 C 427.390625 98.613281 418.765625 101.097656 414.273438 100.460938 C 424.945312 100.832031 430.617188 85.894531 429.601562 79.113281 C 429.496094 79.238281 428.914062 80.582031 428 82.292969 C 428.480469 81.164062 429.015625 80.0625 429.609375 78.988281 C 427.125 74.554688 425.925781 84 421.621094 88.179688 C 420.089844 90.082031 416.28125 90.871094 414.101562 92.507812 C 414.855469 91.992188 415.558594 91.40625 416.203125 90.757812 C 415.355469 91.070312 414.480469 91.339844 413.652344 91.558594 C 424.953125 88.949219 420.957031 67.144531 419.296875 62.585938 C 419.246094 63.964844 419.085938 65.328125 418.8125 66.679688 C 418.890625 65.148438 419.109375 63.671875 419.042969 63.148438 C 420.050781 61.242188 416.976562 60.882812 416.851562 62.796875 C 417.859375 103.050781 339.636719 67.964844 326.117188 94.070312 L 326.230469 94.070312 L 326.078125 94.269531 C 325.882812 94.355469 325.722656 94.484375 325.605469 94.660156 C 325.714844 94.449219 325.84375 94.246094 325.984375 94.050781 C 320.9375 91.300781 325.898438 80.496094 324.574219 76.914062 C 321.433594 77.078125 313.09375 85.121094 313.359375 90.40625 C 313.445312 90.5 313.523438 90.578125 313.597656 90.671875 C 313.597656 91.089844 313.597656 91.472656 313.597656 91.824219 L 313.339844 91.527344 C 313.339844 91.1875 313.339844 90.804688 313.398438 90.40625 C 312.746094 89.570312 311.988281 88.847656 311.121094 88.238281 C 310.257812 87.625 309.320312 87.15625 308.316406 86.820312 C 307.308594 86.488281 306.277344 86.308594 305.21875 86.28125 C 304.160156 86.253906 303.117188 86.382812 302.097656 86.664062 C 302.589844 86.832031 303.027344 87.089844 303.410156 87.445312 L 303.289062 87.445312 C 297.9375 85.339844 301.382812 89.023438 303.992188 91.863281 L 304.285156 91.910156 C 304.546875 92.234375 304.785156 92.574219 305 92.929688 L 304.65625 92.863281 C 304.4375 92.546875 304.210938 92.253906 303.992188 91.984375 C 300.488281 90.5 285.777344 92.871094 290.453125 95.910156 C 290.804688 95.527344 299.363281 96.984375 300.640625 99.097656 C 301.265625 98.957031 301.902344 98.875 302.542969 98.851562 C 302.078125 98.976562 301.605469 99.058594 301.125 99.097656 C 301.308594 99.269531 301.46875 99.441406 301.613281 99.59375 C 301.574219 99.71875 301.554688 99.851562 301.5625 99.984375 L 301.441406 99.984375 C 301.1875 99.644531 300.914062 99.328125 300.613281 99.03125 C 296.195312 97.984375 278.714844 108.484375 287.101562 108.199219 C 287.128906 108.207031 287.152344 108.207031 287.179688 108.199219 C 287.292969 108.085938 287.824219 107.535156 288.632812 106.808594 C 287.882812 107.515625 287.378906 108.058594 287.1875 108.199219 C 289.089844 107.113281 299.566406 107.246094 302.582031 109.476562 C 303.269531 109.296875 303.960938 109.175781 304.667969 109.113281 C 304.105469 109.171875 303.800781 109.542969 303.203125 109.589844 C 303.371094 109.695312 303.496094 109.789062 303.621094 109.875 C 303.605469 110.039062 303.605469 110.207031 303.621094 110.371094 L 303.574219 110.371094 C 303.246094 110.003906 302.871094 109.6875 302.457031 109.417969 C 279.609375 113.703125 257.5 138.316406 266.011719 159.128906 C 266.59375 160.667969 268.175781 159.9375 268.328125 158.402344 C 268.246094 158.308594 268.148438 158.230469 268.039062 158.164062 L 268.039062 158.089844 C 268.15625 158.132812 268.261719 158.191406 268.355469 158.269531 L 268.296875 158.402344 C 268.417969 158.542969 268.503906 158.703125 268.554688 158.878906 C 268.554688 158.878906 268.554688 158.679688 268.488281 158.421875 C 268.609375 158.550781 268.671875 158.703125 268.679688 158.878906 C 268.679688 158.878906 268.621094 158.519531 268.546875 157.925781 C 273.304688 135.296875 305.402344 133.25 324.507812 138.265625 C 303.296875 161.726562 277.648438 128.8125 292.1875 151.871094 C 288.023438 150.921875 286.578125 148.0625 285.941406 151.035156 C 295.308594 184.042969 326.433594 154.539062 343.160156 164.03125 C 350.890625 175.703125 329.832031 185.339844 324.59375 183.898438 C 320.785156 186.015625 331.917969 191.800781 335.542969 189.824219 C 334.753906 194.355469 316.121094 197.4375 317.644531 196.78125 C 318.421875 197.703125 319.296875 198.511719 320.273438 199.214844 C 321.25 199.917969 322.296875 200.488281 323.417969 200.929688 C 324.539062 201.371094 325.695312 201.667969 326.886719 201.824219 C 328.082031 201.976562 329.273438 201.980469 330.46875 201.835938 C 329.964844 209.082031 311.113281 210.921875 311.835938 209.910156 C 311.835938 209.910156 318.617188 215.824219 327.527344 214.539062 C 327.585938 214.730469 327.640625 214.917969 327.707031 215.109375 C 325.804688 218.234375 322.480469 217.574219 317.511719 218.738281 C 316.929688 218.519531 316.328125 218.464844 315.714844 218.570312 C 315.101562 218.679688 314.558594 218.933594 314.082031 219.335938 C 309.902344 219.828125 305.757812 219.609375 301.648438 218.679688 C 303.9375 219.863281 306.160156 221.160156 308.3125 222.574219 C 306.457031 224.992188 305.113281 229.238281 308.3125 231.515625 C 304.4375 232.304688 302.953125 237.894531 305.085938 240.710938 C 301.640625 242.1875 300.183594 247.976562 303.488281 250.480469 C 255.683594 268.941406 252.457031 224.726562 222.683594 200.398438 C 158.523438 181.597656 73.207031 144.75 63.78125 70.5625 C 55.734375 34.957031 62.742188 3.453125 60.945312 1.5 C 58.390625 1.121094 41.046875 20 38.253906 52.636719 C 34.257812 53.503906 20.335938 59.386719 21.632812 99.859375 C 19.726562 101.945312 10.035156 113.597656 13.253906 137.886719 C 10.929688 139.601562 3.972656 146.835938 6.589844 173.207031 C 4.683594 175.292969 -3.722656 186.328125 5.046875 213.679688 C 3.496094 216.253906 -3.847656 230.820312 5.046875 254.621094 C 3.589844 257.105469 -2.171875 268.757812 7.351562 285.8125 C 7.007812 288.265625 6.863281 290.734375 6.917969 293.210938 C 6.972656 295.691406 7.226562 298.148438 7.671875 300.585938 C 8.121094 303.023438 8.761719 305.410156 9.59375 307.746094 C 10.425781 310.082031 11.441406 312.335938 12.632812 314.507812 C 11.605469 317.085938 8 329.101562 20.367188 343.574219 C 20.757812 346.03125 23.078125 361.605469 29.390625 368.71875 C 29.523438 371.421875 30.417969 387 42.921875 394.71875 C 42.921875 397.300781 43.703125 406.867188 58.152344 416.3125 C 58.792969 419.007812 62.535156 433.605469 76.84375 438.019531 C 76.96875 440.878906 78.644531 449.914062 96.039062 456.785156 C 97.332031 458.625 104.414062 468.210938 114.210938 469.78125 C 116.386719 472.265625 118.792969 474.492188 121.4375 476.464844 C 124.082031 478.4375 126.90625 480.109375 129.902344 481.484375 C 132.902344 482.859375 136.011719 483.902344 139.234375 484.617188 C 142.453125 485.335938 145.710938 485.707031 149.011719 485.730469 C 170.15625 506.105469 235.480469 490.871094 251.265625 477.542969 C 249.550781 486.3125 237.886719 506.039062 236.089844 505.761719 L 234.671875 507.058594 C 237.113281 508.007812 239.605469 508.179688 242.152344 507.570312 C 234.757812 516.484375 220.035156 529.175781 215.980469 533.183594 C 221.152344 531.648438 222.113281 530.554688 229.613281 529.660156 C 229.976562 534.78125 219.855469 542.359375 218.046875 542.742188 C 219.949219 544.351562 226.769531 547.75 232.539062 546.863281 C 228.125 551.71875 224.316406 557.007812 221.113281 562.734375 C 223.835938 563.296875 224.417969 563.523438 231.035156 563.820312 C 214.953125 581.109375 209.933594 612.898438 186.515625 622.410156 C 168.425781 608.128906 156.417969 590.867188 138.023438 609.207031 C 121.371094 584.453125 86.765625 548.414062 64 543.351562 C 62.570312 547.40625 71.558594 550.851562 74.949219 563.230469 C 76.851562 569.597656 78.0625 574.492188 78.679688 577.195312 C 72.214844 576.300781 37.742188 578.347656 42.988281 585.765625 C 73.042969 586.992188 98.550781 650.707031 117.25 653.097656 C 119.304688 653.097656 129.742188 648.097656 137.492188 640.226562 C 139.996094 642.699219 143.851562 646.367188 148.992188 650.820312 C 144.449219 663.96875 150.316406 672.832031 160.417969 673.339844 C 159.960938 675.679688 167.785156 680.957031 170.214844 680.449219 C 174.023438 689.066406 187.941406 687.695312 193.148438 683.640625 C 193.324219 683.542969 193.460938 683.40625 193.558594 683.230469 C 215.011719 696.457031 239.257812 713.699219 262.964844 721.933594 C 254.710938 739.746094 239.820312 757.160156 232.5 773.792969 C 253.1875 774.5625 275.960938 767.394531 282.390625 758.816406 C 280.800781 765.273438 274.589844 777.621094 265.746094 782.617188 C 284.597656 782.449219 301.601562 775.230469 308.34375 766.890625 C 305.953125 772.429688 302.953125 777.554688 300.546875 783.351562 C 325.671875 783.140625 339.179688 769.554688 345.675781 761.109375 C 341.199219 774.171875 336.484375 784.734375 329.023438 790.710938 C 349.28125 792.703125 372.371094 784.589844 378.882812 765.167969 C 385.320312 784.675781 408.503906 792.835938 428.78125 790.875 C 421.355469 784.960938 416.671875 774.601562 412.242188 761.691406 C 418.59375 769.851562 432.3125 783.515625 457.132812 783.589844 C 454.648438 777.277344 451.328125 772.097656 448.910156 766.089844 C 455.574219 774.660156 472.769531 782.277344 492.058594 782.484375 C 483.277344 777.535156 477.082031 765.460938 475.460938 758.894531 C 481.90625 767.375 504.664062 774.421875 525.179688 773.660156 C 517.753906 757.207031 503.453125 739.613281 495.21875 721.835938 C 519.601562 713.261719 542.8125 702.21875 564.851562 688.714844 C 569.566406 692.875 584.542969 688.191406 587.789062 679.832031 C 590.246094 680.261719 597.957031 675.15625 597.585938 672.71875 C 607.507812 672.035156 613.363281 664.152344 609.203125 650.734375 C 614.285156 646.328125 618.113281 642.691406 620.625 640.214844 C 628.386719 648.078125 638.792969 653.105469 640.867188 653.070312 C 658.730469 650.6875 686.160156 586.347656 715.015625 585.765625 C 720.035156 578.234375 685.617188 576.246094 679.054688 577.082031 C 678.542969 571.3125 690.566406 545.332031 693.613281 545.769531 L 693.480469 545.890625 C 695.515625 544.113281 692.726562 541.589844 690.824219 543.207031 C 690.847656 543.160156 690.878906 543.117188 690.910156 543.074219 C 667.394531 554.84375 636.917969 582.59375 619.84375 609.160156 C 602.011719 590.953125 589.101562 608.035156 571.957031 622.003906 C 548.03125 612.625 543.460938 581.0625 527.207031 563.421875 C 533.871094 563.125 534.460938 562.886719 537.195312 562.335938 C 536.425781 560.714844 532.957031 554.539062 526.152344 546.84375 C 532.101562 547.539062 538.082031 544.214844 540.03125 542.703125 C 538.082031 542.351562 528.054688 534.621094 528.484375 529.496094 C 535.96875 530.449219 536.949219 531.488281 542.097656 533.019531 C 538.117188 529.070312 523.246094 516.261719 515.90625 507.429688 C 517.210938 507.792969 518.535156 507.941406 519.886719 507.871094 C 521.238281 507.800781 522.542969 507.515625 523.800781 507.019531 C 520.941406 505.972656 509.519531 488.253906 507.355469 477.78125 C 523.304688 490.984375 588.484375 505.90625 609.117188 485.671875 C 630.253906 485.425781 642.105469 472.058594 643.914062 469.726562 C 653.816406 468.191406 660.878906 458.5 662.042969 456.785156 C 679.523438 449.933594 681.234375 440.839844 681.234375 438.019531 C 695.667969 433.605469 699.410156 418.980469 699.925781 416.3125 C 714.359375 406.746094 715.261719 397.273438 715.160156 394.71875 C 727.660156 387 728.6875 371.421875 728.6875 368.71875 C 735 361.605469 737.457031 346.03125 737.714844 343.574219 C 750.089844 329.101562 746.339844 316.917969 745.445312 314.507812 C 746.640625 312.335938 747.652344 310.082031 748.488281 307.746094 C 749.320312 305.410156 749.960938 303.023438 750.410156 300.585938 C 750.859375 298.148438 751.109375 295.691406 751.164062 293.210938 C 751.21875 290.734375 751.070312 288.265625 750.730469 285.8125 C 760.238281 268.757812 754.441406 257.105469 753.023438 254.660156 Z M 454.019531 175.636719 C 454.972656 175.414062 455.863281 175.039062 456.6875 174.511719 C 455.882812 175.105469 454.988281 175.484375 454.003906 175.65625 Z M 430.277344 180.328125 L 430.210938 180.328125 Z M 429.019531 95.117188 C 428.988281 95.191406 428.96875 95.265625 428.960938 95.347656 C 428.957031 95.320312 428.957031 95.296875 428.960938 95.269531 Z M 427.933594 98.574219 C 428.777344 97.976562 429.558594 97.300781 430.277344 96.554688 L 430.324219 96.554688 C 429.601562 97.316406 428.804688 97.988281 427.933594 98.574219 Z M 418.414062 63.472656 C 418.601562 63.421875 418.773438 63.335938 418.925781 63.214844 C 418.769531 63.527344 418.523438 63.730469 418.183594 63.824219 L 418.097656 63.472656 C 418.21875 63.492188 418.335938 63.484375 418.453125 63.441406 Z M 417.890625 63.414062 C 417.890625 63.539062 417.890625 63.691406 417.890625 63.84375 C 417.753906 63.832031 417.625 63.789062 417.507812 63.71875 C 417.367188 63.136719 417.28125 62.765625 417.28125 62.765625 C 417.394531 63.078125 417.613281 63.285156 417.925781 63.386719 Z M 323.929688 78.496094 C 324.113281 78.570312 324.304688 78.589844 324.5 78.550781 C 324.699219 78.511719 324.867188 78.425781 325.015625 78.285156 C 324.851562 78.4375 324.632812 78.617188 324.394531 78.808594 C 324.210938 78.824219 324.039062 78.792969 323.871094 78.714844 Z M 302.773438 88.3125 C 302.449219 88.3125 302.152344 88.414062 301.945312 88.464844 C 302.226562 88.402344 302.457031 88.257812 302.640625 88.035156 L 302.847656 88.1875 Z M 302.839844 87.425781 C 302.832031 87.355469 302.816406 87.285156 302.792969 87.214844 C 302.84375 87.273438 302.882812 87.335938 302.914062 87.40625 Z M 291.957031 95.300781 C 291.59375 95.460938 291.375 95.574219 291.375 95.574219 C 291.726562 95.355469 291.90625 95.039062 291.917969 94.625 L 292.023438 94.625 C 292.078125 94.855469 292.058594 95.082031 291.957031 95.300781 Z M 292.15625 94.023438 L 291.71875 94.023438 C 291.503906 93.742188 291.214844 93.613281 290.863281 93.632812 C 290.949219 93.632812 291.71875 93.632812 292.871094 93.726562 Z M 287.339844 107.085938 C 287.398438 107.238281 287.417969 107.390625 287.40625 107.550781 C 287.417969 107.390625 287.394531 107.238281 287.339844 107.085938 Z M 287.816406 106.039062 C 286.941406 106.230469 286.605469 106.410156 285.96875 106.496094 C 286.054688 106.496094 286.777344 106.21875 287.941406 105.925781 Z M 267.613281 158.050781 L 267.6875 158.050781 Z M 314.570312 92.109375 L 314.664062 92.109375 Z M 322.9375 78.617188 L 322.871094 78.617188 C 323.015625 77.960938 323.136719 77.476562 323.214844 77.257812 C 323.152344 77.71875 323.058594 78.171875 322.9375 78.617188 Z M 323.355469 78.265625 C 323.242188 78.09375 323.1875 77.902344 323.195312 77.695312 C 323.234375 77.886719 323.320312 78.054688 323.460938 78.191406 Z M 287.816406 151.929688 C 287.679688 151.984375 287.535156 152.015625 287.386719 152.015625 C 287.539062 152.027344 287.679688 152 287.816406 151.929688 Z M 287.101562 152.023438 C 287.3125 152.109375 287.605469 152.261719 287.988281 152.414062 Z M 288.433594 151.367188 L 288.300781 151.308594 C 288.347656 151.132812 288.347656 150.953125 288.300781 150.777344 C 288.335938 150.972656 288.386719 151.164062 288.453125 151.347656 Z M 325.566406 186.003906 L 325.46875 186.003906 C 325.632812 185.925781 325.761719 185.8125 325.859375 185.660156 C 325.796875 185.785156 325.714844 185.898438 325.613281 185.996094 Z M 326.289062 184.863281 C 326.070312 184.695312 325.886719 184.496094 325.738281 184.261719 C 325.917969 184.433594 326.148438 184.625 326.421875 184.84375 Z M 310.105469 237.40625 L 310.160156 237.472656 C 310.136719 237.476562 310.109375 237.476562 310.085938 237.472656 Z M 310.988281 585.871094 C 301.867188 613.15625 288.425781 650.34375 278.113281 680.230469 C 262.878906 674.242188 248.933594 661.769531 236.546875 654.980469 C 238.992188 649.992188 235.195312 646.707031 234.527344 642.460938 C 237.859375 624.316406 209.628906 637.074219 227.054688 614.984375 C 227.480469 614.441406 227.492188 614.03125 226.929688 613.023438 C 235.144531 604.359375 249.496094 587.9375 259.40625 580.519531 C 261.851562 582.890625 259.578125 591.628906 265.976562 585.746094 C 265.757812 585.730469 265.535156 585.730469 265.316406 585.746094 C 268.8125 584.199219 271.742188 581.925781 274.113281 578.929688 C 276.410156 582.195312 276.105469 590.277344 276.972656 593.402344 C 283.359375 587.984375 282.503906 574.027344 290.121094 569.046875 C 293.574219 575.789062 296.011719 577.710938 298.355469 580.242188 C 300.105469 569.835938 303.675781 560.058594 312.636719 554.089844 C 311.265625 563.421875 309.886719 575.988281 311 585.890625 Z M 312.484375 227.726562 L 312.550781 227.4375 L 312.703125 227.621094 Z M 314.386719 238.40625 C 314.339844 238.34375 314.285156 238.28125 314.226562 238.226562 L 314.453125 238.121094 Z M 316.777344 228.589844 L 316.570312 228.34375 C 316.664062 228.34375 316.769531 228.257812 316.863281 228.199219 Z M 412.996094 99.480469 L 413.082031 99.480469 C 413.109375 99.546875 413.128906 99.617188 413.136719 99.6875 C 413.101562 99.613281 413.054688 99.542969 412.996094 99.480469 Z M 415.203125 110.039062 C 415.195312 109.90625 415.164062 109.78125 415.101562 109.667969 L 415.1875 109.667969 C 415.226562 109.789062 415.234375 109.910156 415.203125 110.039062 Z M 454.832031 237.179688 L 454.945312 237.675781 C 454.828125 237.605469 454.707031 237.542969 454.582031 237.492188 C 454.675781 237.394531 454.757812 237.292969 454.832031 237.179688 Z M 452.296875 227.34375 L 452.394531 227.726562 L 452.117188 227.574219 Z M 450.71875 238.320312 L 450.660156 238.398438 L 450.660156 238.273438 Z M 448.164062 228.34375 C 448.121094 228.378906 448.089844 228.417969 448.0625 228.46875 L 448.011719 228.265625 Z M 510.871094 591.210938 C 514.679688 596.734375 528.550781 607.738281 531.101562 612.425781 C 530.671875 613.519531 530.511719 613.882812 530.976562 614.394531 C 548.402344 636.292969 520.257812 623.832031 523.496094 641.863281 C 522.542969 646.320312 518.933594 650.203125 521.695312 655.191406 C 509.316406 662.007812 495.390625 674.5 480.164062 680.488281 C 466.199219 639.109375 445.222656 596.457031 445.644531 554.222656 C 454.679688 560.183594 458.191406 569.988281 459.925781 580.378906 C 462.246094 577.835938 464.769531 575.757812 468.199219 569.140625 C 475.863281 574.09375 475.023438 588.03125 481.449219 593.496094 C 482.269531 590.449219 481.878906 582.386719 484.191406 579.160156 C 487.515625 583.558594 493.378906 586.222656 498.589844 588.480469 C 505.613281 585.765625 504.425781 583.0625 510.859375 591.210938 Z M 510.871094 591.210938 " fill-opacity="1" fill-rule="nonzero"/></g></g></g></g></g></svg>